<svg height="161" viewBox="0 0 600 161" width="600" xmlns="http://www.w3.org/2000/svg"><g fill="#fff" transform="translate(12 20)"><path d="m86.25 66.3912905c0-21.9983796-18.0166667-39.8246528-40.25-39.8246528s-40.25 17.8262732-40.25 39.8246528 18.0166667 39.8246525 40.25 39.8246525 40.25-17.8262729 40.25-39.8246525zm-20.5083333-7.3011863c2.3958333-.6637442 5.0791666-1.0430267 7.8583333-1.0430267 2.875 0 5.6541667.3792825 8.05 1.0430267.4791667 2.370515.7666667 4.7410301.7666667 7.2063657 0 2.4653357-.2875 4.9306713-.7666667 7.2063657-2.3958333.6637443-5.175 1.0430267-8.05 1.0430267-2.7791667 0-5.4625-.3792824-7.8583333-1.0430267.8625-2.2756944 1.3416666-4.74103 1.3416666-7.3011863 0-2.370515-.4791666-4.8358507-1.3416666-7.1115451zm-19.7416667 24.3688946c-9.4875 0-17.25-7.6804687-17.25-17.0677083s7.7625-17.0677083 17.25-17.0677083 17.25 7.6804687 17.25 17.0677083-7.7625 17.0677083-17.25 17.0677083zm-36.41666667-17.0677083c0-2.370515.2875-4.7410301.67083337-7.0167245 2.5875-.7585648 5.5583333-1.2326679 8.7208333-1.2326679 2.5875 0 5.0791667.2844619 7.2833333.8533855-.8625 2.2756944-1.3416666 4.7410301-1.3416666 7.3960069 0 2.6549769.4791666 5.1203125 1.4375 7.396007-2.2041667.5689236-4.6958334.8533854-7.2833334.8533854-3.1625 0-6.1333333-.474103-8.7208333-1.2326679-.47916667-2.2756944-.76666667-4.6462094-.76666667-7.0167245zm43.98749997-35.2732639c.7666667 2.4653357 1.15 5.3099537 1.15 8.2493924 0 2.7497974-.3833333 5.3099537-.9583333 7.5856481-2.3958333-.948206-4.9833333-1.422309-7.7625-1.422309-2.4916667 0-4.8875.474103-7.1875 1.2326678-.575-2.2756944-.8625-4.7410301-.8625-7.3960069 0-3.0342593.3833333-5.8788773 1.15-8.344213 2.2041667-.3792824 4.5041667-.6637442 6.9-.6637442 2.5875 0 5.0791667.2844618 7.5708333.7585648zm-14.4708333 70.6413484c-.7666667-2.4653356-1.15-5.3099537-1.15-8.344213 0-2.6549768.2875-5.1203125.8625-7.3960069 2.2041667.7585648 4.6 1.2326678 7.1875 1.2326678 2.6833333 0 5.3666667-.474103 7.7625-1.422309.575 2.2756944.9583333 4.9306713.9583333 7.5856481 0 2.9394387-.3833333 5.7840567-1.15 8.249392-2.4916666.474103-4.9833333.758565-7.5708333.758565-2.3958333 0-4.6-.189641-6.9-.663744z"/><path d="m85.675 83.4589988c.9583333 2.1808739 1.5333333 4.4565683 1.5333333 7.0167246 0 9.3872396-7.7625 17.0677086-17.25 17.0677086-2.4916666 0-4.8875-.568924-7.0916666-1.51713-1.5333334.663744-3.1625 1.232668-4.7916667 1.706771 3.3541667 2.275694 7.475 3.603183 11.8833333 3.603183 11.5958334 0 21.0833334-9.38724 21.0833334-20.8605326 0-4.3617477-1.3416667-8.344213-3.6416667-11.7577547-.4791667 1.6119503-1.0541667 3.2239005-1.725 4.7410301z"/><path d="m59.2422352 14.0353385c1.1228499 2.6084588 1.7904009 5.3330066 1.7740977 8.4021986-.0597783 11.2537043-9.3162642 20.5101902-20.5699685 20.5699685-2.9555183.0156994-5.7937398-.6512477-8.4021986-1.7740977-1.8230072.8053777-3.7590844 1.4976853-5.6945578 2.0763192 3.9640906 2.707037 8.8436097 4.2725056 14.0726036 4.2450932 13.7545274-.0734259 25.0680101-11.3869086 25.1414359-25.141436.0274125-5.2289939-1.53866-9.9948392-4.2450931-14.07260362-.5786339 1.93547342-1.2709415 3.87155062-2.0763192 5.69455782z" transform="matrix(-.70710678 -.70710678 .70710678 -.70710678 58.690792 80.206124)"/><path d="m21.6583333 107.543432c-9.4875 0-17.24999997-7.680469-17.24999997-17.0677086 0-2.4653357.575-4.8358507 1.53333334-7.0167246-.67083334-1.5171296-1.24583334-3.1290798-1.725-4.7410301-2.3 3.3187211-3.64166667 7.396007-3.64166667 11.7577547 0 11.4732926 9.4875 20.8605326 21.0833333 20.8605326 4.4083334 0 8.4333334-1.327489 11.8833334-3.603183-1.6291667-.474103-3.2583334-1.043027-4.7916667-1.706771-2.1083333.948206-4.5041667 1.51713-7.0916667 1.51713z"/><path d="m118 94.5833333 25.202442-59.5833333h11.833108l25.742198 59.5833333h-11.833108l-7.473541-16.25h-19.016011l3.778291-9.5833333h12.331343l-9.715604-22.375-19.555767 48.2083333zm69.005699 0v-43.75h8.511533l1.370149 5.5833334c5.286865-3.7222409 10.60133-5.5833334 15.943555-5.5833334 10.047812 0 15.071642 5.4305013 15.071642 16.2916667v27.4583333h-11.002714v-27.5833333c0-4.8333575-2.394277-7.25-7.182903-7.25-3.847509 0-7.75032 1.8472037-11.708549 5.5416667v29.2916666zm51.276798-2.0833333v-9.1666667c4.843986 1.9444542 10.435246 2.9166667 16.773948 2.9166667 4.733267 0 7.099864-1.5277625 7.099864-4.5833333 0-2.7777917-1.591571-4.1666667-4.774762-4.1666667h-7.888738c-8.857575 0-13.286296-4.4444-13.286296-13.3333333 0-9.1667125 6.463165-13.75 19.389688-13.75 5.480624 0 10.642852.833325 15.486838 2.5v9.1666666c-4.843986-1.9444541-10.103092-2.9166666-15.777476-2.9166666-5.951183 0-8.92673 1.5277625-8.92673 4.5833333 0 2.7777917 1.729969 4.1666667 5.189959 4.1666667h7.058345c9.687972 0 14.531886 4.4444 14.531886 13.3333333 0 9.1667125-6.17253 13.75-18.517775 13.75-6.061902 0-11.514765-.833325-16.358751-2.5zm38.405698-41.6666667h11.085753l6.47707 29.625 9.674084-29.625h9.424966l10.462958 29.625 5.729715-29.625h11.45943l-11.791588 43.75h-10.338398l-10.25536-30.2083333-10.379919 30.2083333h-10.504477zm107.369878 26.1666667h-28.524016c0 5.8889183 4.788555 8.8333333 14.365807 8.8333333 4.401108 0 8.802149-.4166625 13.203257-1.25v8.75c-3.847509.8333375-8.802141 1.25-14.864044 1.25-15.805235 0-23.707734-7.4582587-23.707734-22.375 0-14.2500712 7.238191-21.375 21.71479-21.375 14.448919 0 20.386173 8.722135 17.81194 26.1666667zm-28.524016-8.0833333h18.185617c.387519-6.2778092-2.518829-9.4166667-8.719131-9.4166667-5.812784 0-8.968247 3.1388575-9.466486 9.4166667zm36.786431 25.6666666v-43.75h8.511534l1.370149 5.5833334c3.819829-3.7222409 7.861037-5.5833334 12.123745-5.5833334v8.9166667c-4.096628 0-7.764163 1.8472037-11.002714 5.5416667v29.2916666zm29.271371 0v-59.5833333h11.002714v24.5833333h29.27137v-24.5833333h11.002714v59.5833333h-11.002714v-25.4166666h-29.27137v25.4166666zm103.591587-43.75v43.75h-8.594572l-1.32863-5.5833333c-5.286865 3.7222408-10.60133 5.5833333-15.943555 5.5833333-10.020131 0-15.030122-5.4305012-15.030122-16.2916666v-27.4583334h11.002714v27.5833334c0 4.8333575 2.380437 7.25 7.141384 7.25 3.847509 0 7.764159-1.8472038 11.750068-5.5416667v-29.2916667zm21.382633 33.625c2.518873.8055596 5.43906 1.2083334 8.760651 1.2083334 7.19678 0 10.795115-4.7082863 10.795115-14.125 0-7.694483-3.141624-11.5416667-9.424966-11.5416667-3.709109 0-7.086009.7499925-10.1308 2.25zm-11.002714-49.4583333h11.002714v17.9166667c3.29391-1.3888959 6.68465-2.0833334 10.17232-2.0833334 13.507802 0 20.261601 6.99993 20.261601 21 0 15.1667425-7.376588 22.75-22.129986 22.75-5.978863 0-12.414349-.5972162-19.306649-1.7916666z"/></g></svg>